<svg xmlns="http://www.w3.org/2000/svg" width="1920" height="1080" version="1.0" viewBox="0 0 1440 810"><defs><clipPath id="b"><path d="M0 0h1334v470H0z"/></clipPath><clipPath id="c"><path d="M0 0h1296v638H0z"/></clipPath><clipPath id="a"><path d="M0 0h1440v810H0z"/></clipPath></defs><g fill="#0000ed" clip-path="url(#a)"><g clip-path="url(#b)"><path d="M111.076 159.25c0 12.648 3.05 24.421 9.156 35.327 6.113 10.907 14.297 19.743 24.547 26.5 10.25 6.762 21.922 10.141 35.015 10.141 13.082 0 24.75-3.379 35-10.14 10.25-6.758 18.426-15.594 24.532-26.5 6.113-10.907 9.171-22.68 9.171-35.329 0-12.656-3.058-24.437-9.171-35.344-6.106-10.906-14.282-19.738-24.532-26.5-10.25-6.757-21.918-10.14-35-10.14-13.093 0-24.765 3.383-35.015 10.14-10.25 6.762-18.434 15.594-24.547 26.5-6.106 10.907-9.156 22.688-9.156 35.344Zm0 307.546H12.935V14.64h98.14v35.328c12.657-15.695 27.598-26.598 44.829-32.703 17.226-6.113 35.222-9.172 53.984-9.172 27.477 0 52.016 7.09 73.61 21.266 21.593 14.18 38.601 32.718 51.03 55.625 12.438 22.898 18.657 47.652 18.657 74.265 0 26.606-6.219 51.36-18.656 74.266-12.43 22.906-29.438 41.34-51.032 55.297-21.593 13.96-46.132 20.937-73.609 20.937-18.762 0-37.414-3.164-55.953-9.484-18.531-6.332-32.82-16.914-42.86-31.75ZM573.025 87.265c-12.21 0-23.226 3.601-33.047 10.797-9.812 7.199-17.558 16.25-23.234 27.156-5.668 10.906-8.5 22.25-8.5 34.031v143.953h-98.14V14.64h98.14v35.328c7.414-10.906 17.445-20.61 30.094-29.11 12.656-8.507 27.925-12.765 45.812-12.765 4.363 0 9.379.547 15.047 1.64 5.676 1.087 10.477 2.72 14.406 4.907v88.984h-1.312c-4.805-6.101-10.696-10.351-17.672-12.75a65.81 65.81 0 0 0-21.594-3.61Zm229.668 147.89c17.446 0 30.97-3.707 40.563-11.125 9.601-7.414 16.367-16.906 20.297-28.468a110.16 110.16 0 0 0 5.89-35.657c0-12.218-2.074-24-6.218-35.343-4.149-11.344-11.024-20.719-20.625-28.125-9.594-7.414-22.899-11.125-39.907-11.125-17.011 0-30.43 3.71-40.25 11.125-9.812 7.406-16.793 16.781-20.937 28.125-4.137 11.343-6.203 23.125-6.203 35.343 0 12.211 1.957 24.094 5.875 35.657 3.926 11.562 10.797 21.054 20.61 28.468 9.82 7.418 23.456 11.125 40.905 11.125Zm0-226.406c30.102 0 57.586 6.328 82.454 18.985 24.863 12.648 44.707 30.203 59.53 52.671 14.833 22.461 22.25 48.743 22.25 78.844 0 30.531-7.308 57.031-21.921 79.5-14.606 22.469-34.344 39.813-59.219 52.031-24.867 12.211-52.562 18.313-83.094 18.313-30.53 0-58.34-6.102-83.421-18.313-25.086-12.218-44.934-29.562-59.547-52.03-14.618-22.47-21.922-48.97-21.922-79.5 0-30.102 7.41-56.384 22.234-78.845 14.832-22.468 34.79-40.023 59.875-52.671 25.082-12.657 52.676-18.985 82.781-18.985Zm177.969 6.547h113.86l56.921 88.328 56.922-88.328h113.86l-107.97 142.64 117.126 145.266h-119.735l-60.203-88.984-60.203 88.984H971.49l117.14-145.265Zm0 0"/></g><g clip-path="url(#c)" transform="translate(144 172)"><path d="M265.804 477.468c0-12.656-3.059-24.438-9.172-35.344-6.106-10.906-14.281-19.738-24.531-26.5-10.25-6.758-21.922-10.14-35.016-10.14-13.086 0-24.75 3.382-35 10.14-10.25 6.762-18.434 15.594-24.547 26.5-6.105 10.906-9.156 22.688-9.156 35.344 0 12.648 3.05 24.422 9.156 35.328 6.113 10.906 14.297 19.742 24.547 26.5 10.25 6.762 21.914 10.14 35 10.14 13.094 0 24.766-3.378 35.016-10.14 10.25-6.758 18.425-15.594 24.53-26.5 6.114-10.906 9.173-22.68 9.173-35.328Zm98.14-346.813v490.766h-98.14v-34.687c-9.606 14.835-23.899 25.417-42.875 31.75-18.969 6.32-37.617 9.484-55.938 9.484-27.043 0-51.469-6.977-73.281-20.938-21.813-13.957-38.938-32.39-51.375-55.296-12.43-22.907-18.64-47.66-18.64-74.266 0-26.613 6.21-51.367 18.64-74.266 12.437-22.906 29.562-41.445 51.375-55.625 21.812-14.176 46.238-21.265 73.281-21.265 18.32 0 36.207 3.058 53.656 9.172 17.446 6.105 32.5 17.007 45.157 32.703V130.655ZM519.663 442.78h128.906l-1.64-8.171c-1.086-5.458-3.7-11.676-7.844-18.657-4.149-6.976-10.586-13.191-19.313-18.64-8.718-5.457-20.496-8.188-35.328-8.188-15.273 0-27.273 2.73-36 8.188-8.719 5.449-15.152 11.664-19.297 18.64-4.148 6.98-6.765 13.2-7.86 18.657-1.085 5.449-1.624 8.171-1.624 8.171Zm223.125 28.141c0 3.055-.11 6.105-.328 9.156a133.04 133.04 0 0 0-.313 9.172H518.35c0 10.906 2.508 21.703 7.532 32.39 5.02 10.688 12.218 19.415 21.593 26.173 9.375 6.761 20.391 10.14 33.047 10.14 17.446 0 31.188-4.687 41.22-14.062 10.03-9.383 15.265-19.313 15.702-29.781h100.11c-8.282 37.949-26.602 66.414-54.954 85.39-28.355 18.98-61.73 28.469-100.125 28.469-33.148 0-62.37-6.215-87.671-18.64-25.305-12.438-45.043-29.891-59.22-52.36-14.179-22.469-21.265-48.969-21.265-79.5 0-30.102 7.305-56.492 21.922-79.172 14.613-22.687 34.566-40.352 59.86-53 25.3-12.656 54.093-18.984 86.374-18.984 29.227 0 55.946 5.672 80.157 17.015 24.218 11.344 43.629 27.703 58.234 49.078 14.613 21.375 21.922 47.547 21.922 78.516Zm276.13 6.547c0-12.656-3.059-24.438-9.172-35.344-6.105-10.906-14.281-19.738-24.531-26.5-10.25-6.758-21.922-10.14-35.016-10.14-13.086 0-24.75 3.382-35 10.14-10.25 6.762-18.433 15.594-24.547 26.5-6.105 10.906-9.156 22.688-9.156 35.344 0 12.648 3.05 24.422 9.156 35.328 6.114 10.906 14.297 19.742 24.547 26.5 10.25 6.762 21.914 10.14 35 10.14 13.094 0 24.766-3.378 35.016-10.14 10.25-6.758 18.426-15.594 24.531-26.5 6.113-10.906 9.172-22.68 9.172-35.328Zm98.14-143.953V621.42h-98.14v-34.687c-9.606 14.835-23.898 25.417-42.875 31.75-18.969 6.32-37.617 9.484-55.938 9.484-27.043 0-51.468-6.977-73.28-20.938-21.813-13.957-38.938-32.39-51.376-55.296-12.43-22.907-18.64-47.66-18.64-74.266 0-26.613 6.21-51.367 18.64-74.266 12.438-22.906 29.563-41.445 51.375-55.625 21.813-14.176 46.238-21.265 73.281-21.265 18.32 0 36.207 3.058 53.657 9.172 17.445 6.105 32.5 17.007 45.156 32.703v-34.672Zm164.875 287.906h-98.14V130.655h98.14Zm0 0"/></g></g></svg>